<svg width="110" height="20" viewBox="0 0 110 20" fill="none" xmlns="http://www.w3.org/2000/svg">
    <path
        d="M22.4513 9.62264L17.3404 6.89202C17.2209 6.82762 17.0866 6.79384 16.9501 6.79384C16.8136 6.79384 16.6793 6.82762 16.5598 6.89202L11.4488 9.62264C11.3209 9.69093 11.2142 9.7915 11.1398 9.91385C11.0654 10.0362 11.0261 10.1758 11.026 10.3181V15.7385C11.0261 15.8808 11.0654 16.0204 11.1398 16.1427C11.2142 16.265 11.3209 16.3656 11.4488 16.4339L16.5598 19.1645C16.6793 19.2288 16.8136 19.2626 16.9501 19.2626C17.0866 19.2626 17.2208 19.2288 17.3404 19.1645L22.4513 16.4339C22.5792 16.3656 22.686 16.265 22.7603 16.1427C22.8347 16.0204 22.874 15.8808 22.8742 15.7385V10.3181C22.874 10.1758 22.8347 10.0362 22.7603 9.91385C22.686 9.7915 22.5792 9.69093 22.4513 9.62264ZM22.1772 15.7385C22.1774 15.7586 22.1721 15.7783 22.1619 15.7957C22.1517 15.8132 22.1369 15.8276 22.1191 15.8377L17.0081 18.5683C16.991 18.5774 16.9719 18.5822 16.9524 18.5822C16.9329 18.5822 16.9137 18.5774 16.8966 18.5683L11.781 15.8377C11.7632 15.8276 11.7484 15.8132 11.7382 15.7957C11.728 15.7783 11.7227 15.7586 11.7229 15.7385V10.3181C11.7227 10.298 11.728 10.2782 11.7382 10.2608C11.7484 10.2434 11.7632 10.2289 11.781 10.2189L16.892 7.48824C16.9091 7.47912 16.9283 7.47433 16.9477 7.47433C16.9672 7.47433 16.9864 7.47912 17.0035 7.48824L22.1145 10.2189C22.1323 10.2289 22.1471 10.2434 22.1573 10.2608C22.1675 10.2782 22.1727 10.298 22.1726 10.3181L22.1772 15.7385Z"
        fill="#0B0D0E" />
    <path
        d="M7.35657 6.54762C7.82829 6.54762 8.22681 6.64286 8.55214 6.83333C8.89373 7.02381 9.14585 7.26984 9.30851 7.57143C9.48744 7.85714 9.57691 8.18254 9.57691 8.54762C9.57691 9.00794 9.43051 9.40476 9.13772 9.7381C8.86119 10.0556 8.48707 10.2143 8.01535 10.2143C7.6087 10.2143 7.25897 10.0952 6.96618 9.85714C6.68966 9.61905 6.55139 9.29365 6.55139 8.88095C6.55139 8.53175 6.64086 8.2381 6.81979 8C7.01498 7.74603 7.23457 7.54762 7.47857 7.40476C7.3159 7.27778 7.12071 7.22222 6.89298 7.23809C6.4538 7.25397 6.04714 7.39683 5.67302 7.66667C5.2989 7.92064 4.98171 8.25397 4.72145 8.66667C4.46119 9.06349 4.25786 9.49206 4.11147 9.95238C3.96507 10.4127 3.89187 10.8413 3.89187 11.2381V16.7143C3.89187 17.4921 4.11147 18.0159 4.55065 18.2857C4.98984 18.5397 5.59982 18.6667 6.3806 18.6667V19.1667C6.00648 19.1508 5.46969 19.1349 4.77025 19.119C4.08707 19.0873 3.36322 19.0714 2.59871 19.0714C2.01313 19.0714 1.42754 19.0873 0.841961 19.119C0.256378 19.1349 -0.190942 19.1508 -0.5 19.1667V18.6667C0.134381 18.6667 0.581702 18.5476 0.841961 18.3095C1.11849 18.0714 1.25675 17.619 1.25675 16.9524V9.47619C1.25675 8.7619 1.13475 8.2381 0.890759 7.90476C0.646767 7.55556 0.18318 7.38095 -0.5 7.38095V6.88095C0.0205181 6.92857 0.52477 6.95238 1.01276 6.95238C1.56581 6.95238 2.07819 6.92857 2.54991 6.88095C3.0379 6.81746 3.48522 6.73016 3.89187 6.61905V9.35714C4.08707 8.89683 4.34733 8.45238 4.67265 8.02381C4.99797 7.59524 5.38836 7.24603 5.84381 6.97619C6.29927 6.69048 6.80352 6.54762 7.35657 6.54762Z"
        fill="#0B0D0E" />
    <path
        d="M32.6375 6.54762C33.2556 6.54762 33.7761 6.63492 34.1991 6.80952C34.622 6.96825 34.9636 7.19048 35.2238 7.47619C35.5166 7.77778 35.7199 8.18254 35.8338 8.69048C35.9477 9.18254 36.0046 9.80952 36.0046 10.5714V16.9524C36.0046 17.619 36.1347 18.0714 36.395 18.3095C36.6552 18.5476 37.0944 18.6667 37.7125 18.6667V19.1667C37.436 19.1508 37.005 19.1349 36.4194 19.119C35.8501 19.0873 35.2889 19.0714 34.7358 19.0714C34.1828 19.0714 33.6379 19.0873 33.1011 19.119C32.5806 19.1349 32.182 19.1508 31.9055 19.1667V18.6667C32.4423 18.6667 32.8164 18.5476 33.0279 18.3095C33.2556 18.0714 33.3695 17.619 33.3695 16.9524V9.90476C33.3695 9.44444 33.3369 9.03175 33.2719 8.66667C33.2068 8.28571 33.0523 7.98413 32.8083 7.7619C32.5806 7.52381 32.2146 7.40476 31.7103 7.40476C31.141 7.40476 30.6286 7.57143 30.1732 7.90476C29.734 8.2381 29.3761 8.69841 29.0996 9.28571C28.8393 9.85714 28.7092 10.5 28.7092 11.2143V16.9524C28.7092 17.619 28.8231 18.0714 29.0508 18.3095C29.2785 18.5476 29.6526 18.6667 30.1732 18.6667V19.1667C29.9129 19.1508 29.5225 19.1349 29.002 19.119C28.4815 19.0873 27.9447 19.0714 27.3917 19.0714C26.8386 19.0714 26.2611 19.0873 25.6593 19.119C25.0575 19.1349 24.6101 19.1508 24.3173 19.1667V18.6667C24.9517 18.6667 25.399 18.5476 25.6593 18.3095C25.9358 18.0714 26.0741 17.619 26.0741 16.9524V9.47619C26.0741 8.7619 25.9521 8.2381 25.7081 7.90476C25.4641 7.55556 25.0005 7.38095 24.3173 7.38095V6.88095C24.8379 6.92857 25.3421 6.95238 25.8301 6.95238C26.3831 6.95238 26.8955 6.92857 27.3673 6.88095C27.8552 6.81746 28.3026 6.73016 28.7092 6.61905V9.21429C29.1321 8.2619 29.6933 7.57937 30.3928 7.16667C31.1085 6.75397 31.8567 6.54762 32.6375 6.54762ZM39.9817 6.54762C40.5998 6.54762 41.1203 6.63492 41.5432 6.80952C41.9662 6.96825 42.3077 7.19048 42.568 7.47619C42.8608 7.77778 43.0641 8.18254 43.178 8.69048C43.2918 9.18254 43.3488 9.80952 43.3488 10.5714V16.9524C43.3488 17.619 43.4789 18.0714 43.7392 18.3095C44.0157 18.5476 44.4712 18.6667 45.1055 18.6667V19.1667C44.829 19.1508 44.398 19.1349 43.8124 19.119C43.2268 19.0873 42.6493 19.0714 42.08 19.0714C41.527 19.0714 40.9821 19.0873 40.4453 19.119C39.9247 19.1349 39.5262 19.1508 39.2497 19.1667V18.6667C39.7865 18.6667 40.1606 18.5476 40.3721 18.3095C40.5998 18.0714 40.7137 17.619 40.7137 16.9524V9.90476C40.7137 9.44444 40.6811 9.03175 40.6161 8.66667C40.551 8.28571 40.3965 7.98413 40.1525 7.7619C39.9085 7.52381 39.5262 7.40476 39.0057 7.40476C38.4364 7.40476 37.924 7.57937 37.4686 7.92857C37.0294 8.2619 36.6715 8.72222 36.395 9.30952C36.1347 9.88095 36.0046 10.5238 36.0046 11.2381L35.907 9.2619C36.3462 8.21429 36.9318 7.5 37.6637 7.11905C38.412 6.73809 39.1846 6.54762 39.9817 6.54762Z"
        fill="#0B0D0E" />
    <path
        d="M50.1697 19.3333C49.4865 19.3333 48.901 19.2063 48.413 18.9524C47.925 18.6984 47.559 18.3492 47.315 17.9048C47.071 17.4603 46.949 16.9524 46.949 16.381C46.949 15.6825 47.1117 15.119 47.437 14.6905C47.7623 14.246 48.1771 13.8889 48.6814 13.619C49.2019 13.3492 49.7468 13.127 50.3161 12.9524C50.9017 12.7619 51.4466 12.5873 51.9509 12.4286C52.4714 12.254 52.8943 12.0556 53.2196 11.8333C53.5612 11.6111 53.732 11.3175 53.732 10.9524V9.33333C53.732 8.7619 53.6344 8.30952 53.4392 7.97619C53.2603 7.62698 53.0082 7.38095 52.6828 7.23809C52.3738 7.09524 51.9997 7.02381 51.5605 7.02381C51.1864 7.02381 50.7878 7.07936 50.3649 7.19048C49.942 7.28571 49.6085 7.48413 49.3645 7.78571C49.7224 7.88095 50.0152 8.07143 50.2429 8.35714C50.4869 8.62698 50.6089 8.96825 50.6089 9.38095C50.6089 9.8254 50.4544 10.1746 50.1453 10.4286C49.8525 10.6825 49.4784 10.8095 49.023 10.8095C48.5187 10.8095 48.1446 10.6587 47.9006 10.3571C47.6566 10.0397 47.5346 9.6746 47.5346 9.2619C47.5346 8.83333 47.6403 8.48413 47.8518 8.21429C48.0795 7.94444 48.3723 7.69048 48.7302 7.45238C49.1205 7.19841 49.6167 6.98413 50.2185 6.80952C50.8366 6.63492 51.5198 6.54762 52.2681 6.54762C52.9675 6.54762 53.5694 6.62698 54.0736 6.78571C54.5941 6.92857 55.0252 7.16667 55.3668 7.5C55.7734 7.86508 56.0418 8.3254 56.1719 8.88095C56.3021 9.42064 56.3671 10.0794 56.3671 10.8571V17.4286C56.3671 17.8254 56.4159 18.1111 56.5135 18.2857C56.6274 18.4444 56.8063 18.5238 57.0503 18.5238C57.213 18.5238 57.3675 18.4841 57.5139 18.4048C57.6766 18.3254 57.8636 18.2063 58.0751 18.0476L58.3191 18.4524C57.9775 18.7222 57.6278 18.9365 57.2699 19.0952C56.9283 19.254 56.4891 19.3333 55.9523 19.3333C55.4318 19.3333 55.0089 19.254 54.6836 19.0952C54.3583 18.9365 54.1143 18.7063 53.9516 18.4048C53.8052 18.1032 53.732 17.7302 53.732 17.2857C53.3091 17.9524 52.8048 18.4603 52.2193 18.8095C51.6337 19.1587 50.9505 19.3333 50.1697 19.3333ZM51.3409 18.1905C51.7963 18.1905 52.2193 18.0635 52.6096 17.8095C53.0163 17.5556 53.3904 17.1746 53.732 16.6667V11.9286C53.5531 12.1825 53.2928 12.4048 52.9512 12.5952C52.6096 12.7698 52.2437 12.9524 51.8533 13.1429C51.4629 13.3333 51.0888 13.5556 50.7309 13.8095C50.3893 14.0476 50.1046 14.3571 49.8769 14.7381C49.6492 15.119 49.5353 15.6032 49.5353 16.1905C49.5353 16.8095 49.698 17.3016 50.0233 17.6667C50.3486 18.0159 50.7878 18.1905 51.3409 18.1905Z"
        fill="#0B0D0E" />
    <path
        d="M64.2452 0.5V16.9524C64.2452 17.619 64.3591 18.0714 64.5868 18.3095C64.8308 18.5476 65.2375 18.6667 65.8068 18.6667V19.1667C65.5303 19.1508 65.1155 19.1349 64.5624 19.119C64.0257 19.0873 63.4807 19.0714 62.9277 19.0714C62.3584 19.0714 61.7728 19.0873 61.1709 19.119C60.5853 19.1349 60.1462 19.1508 59.8534 19.1667V18.6667C60.4878 18.6667 60.9351 18.5476 61.1953 18.3095C61.4719 18.0714 61.6101 17.619 61.6101 16.9524V3.35714C61.6101 2.64286 61.48 2.11905 61.2197 1.78571C60.9757 1.43651 60.5203 1.2619 59.8534 1.2619V0.761904C60.3739 0.809524 60.8781 0.833333 61.3661 0.833333C61.9029 0.833333 62.4153 0.809524 62.9033 0.761904C63.3913 0.698413 63.8386 0.611112 64.2452 0.5ZM72.053 6.88095V7.35714C71.6138 7.42064 71.1909 7.56349 70.7843 7.78571C70.3776 8.00794 69.9791 8.31746 69.5887 8.71429L66.6608 11.7143L66.978 11.119L71.3942 17.4286C71.6382 17.7619 71.8741 18.0397 72.1018 18.2619C72.3295 18.4683 72.6142 18.6032 72.9558 18.6667V19.1667C72.7443 19.1508 72.4271 19.1349 72.0042 19.119C71.5976 19.0873 71.1909 19.0714 70.7843 19.0714C70.2475 19.0714 69.7026 19.0873 69.1495 19.119C68.5965 19.1349 68.1898 19.1508 67.9295 19.1667V18.6667C68.2549 18.6667 68.4745 18.5873 68.5883 18.4286C68.7184 18.2698 68.7022 18.0794 68.5395 17.8571L65.8556 13.7619C65.5791 13.381 65.3269 13.1349 65.0992 13.0238C64.8715 12.9127 64.5462 12.8492 64.1232 12.8333V12.3571C64.595 12.3095 64.9772 12.2222 65.27 12.0952C65.5791 11.9683 65.8637 11.7619 66.124 11.4762L67.9539 9.66667C68.4745 9.15873 68.7347 8.7381 68.7347 8.40476C68.7347 8.05556 68.5639 7.80159 68.2223 7.64286C67.897 7.46825 67.4578 7.37302 66.9048 7.35714V6.88095C67.344 6.89683 67.8238 6.92063 68.3443 6.95238C68.8811 6.96825 69.3284 6.97619 69.6863 6.97619C69.9791 6.97619 70.2719 6.97619 70.5647 6.97619C70.8737 6.96032 71.1584 6.94444 71.4186 6.92857C71.6789 6.9127 71.8904 6.89683 72.053 6.88095Z"
        fill="#0B0D0E" />
    <path
        d="M77.9506 19.3333C77.2674 19.3333 76.6818 19.2063 76.1938 18.9524C75.7059 18.6984 75.3399 18.3492 75.0959 17.9048C74.8519 17.4603 74.7299 16.9524 74.7299 16.381C74.7299 15.6825 74.8925 15.119 75.2179 14.6905C75.5432 14.246 75.958 13.8889 76.4622 13.619C76.9828 13.3492 77.5277 13.127 78.097 12.9524C78.6826 12.7619 79.2275 12.5873 79.7317 12.4286C80.2523 12.254 80.6752 12.0556 81.0005 11.8333C81.3421 11.6111 81.5129 11.3175 81.5129 10.9524V9.33333C81.5129 8.7619 81.4153 8.30952 81.2201 7.97619C81.0412 7.62698 80.789 7.38095 80.4637 7.23809C80.1547 7.09524 79.7805 7.02381 79.3413 7.02381C78.9672 7.02381 78.5687 7.07936 78.1458 7.19048C77.7229 7.28571 77.3894 7.48413 77.1454 7.78571C77.5033 7.88095 77.7961 8.07143 78.0238 8.35714C78.2678 8.62698 78.3898 8.96825 78.3898 9.38095C78.3898 9.8254 78.2353 10.1746 77.9262 10.4286C77.6334 10.6825 77.2593 10.8095 76.8038 10.8095C76.2996 10.8095 75.9255 10.6587 75.6815 10.3571C75.4375 10.0397 75.3155 9.6746 75.3155 9.2619C75.3155 8.83333 75.4212 8.48413 75.6327 8.21429C75.8604 7.94444 76.1532 7.69048 76.511 7.45238C76.9014 7.19841 77.3975 6.98413 77.9994 6.80952C78.6175 6.63492 79.3007 6.54762 80.0489 6.54762C80.7484 6.54762 81.3502 6.62698 81.8545 6.78571C82.375 6.92857 82.8061 7.16667 83.1476 7.5C83.5543 7.86508 83.8227 8.3254 83.9528 8.88095C84.0829 9.42064 84.148 10.0794 84.148 10.8571V17.4286C84.148 17.8254 84.1968 18.1111 84.2944 18.2857C84.4083 18.4444 84.5872 18.5238 84.8312 18.5238C84.9939 18.5238 85.1484 18.4841 85.2948 18.4048C85.4574 18.3254 85.6445 18.2063 85.856 18.0476L86.1 18.4524C85.7584 18.7222 85.4086 18.9365 85.0508 19.0952C84.7092 19.254 84.27 19.3333 83.7332 19.3333C83.2127 19.3333 82.7898 19.254 82.4645 19.0952C82.1391 18.9365 81.8951 18.7063 81.7325 18.4048C81.5861 18.1032 81.5129 17.7302 81.5129 17.2857C81.09 17.9524 80.5857 18.4603 80.0001 18.8095C79.4145 19.1587 78.7314 19.3333 77.9506 19.3333ZM79.1217 18.1905C79.5772 18.1905 80.0001 18.0635 80.3905 17.8095C80.7972 17.5556 81.1713 17.1746 81.5129 16.6667V11.9286C81.334 12.1825 81.0737 12.4048 80.7321 12.5952C80.3905 12.7698 80.0245 12.9524 79.6341 13.1429C79.2438 13.3333 78.8696 13.5556 78.5118 13.8095C78.1702 14.0476 77.8855 14.3571 77.6578 14.7381C77.4301 15.119 77.3162 15.6032 77.3162 16.1905C77.3162 16.8095 77.4789 17.3016 77.8042 17.6667C78.1295 18.0159 78.5687 18.1905 79.1217 18.1905Z"
        fill="#0B0D0E" />
    <path
        d="M92.3433 6.54762C92.994 6.54762 93.5551 6.65079 94.0269 6.85714C94.5148 7.04762 94.8646 7.22222 95.076 7.38095C95.6128 7.79365 95.9463 7.52381 96.0764 6.57143H96.6132C96.5806 7.01587 96.5563 7.55555 96.54 8.19048C96.5237 8.80952 96.5156 9.63492 96.5156 10.6667H95.9788C95.8812 10.0794 95.7104 9.50794 95.4664 8.95238C95.2387 8.39683 94.8971 7.93651 94.4417 7.57143C94.0025 7.20635 93.425 7.02381 92.7093 7.02381C92.1725 7.02381 91.7252 7.1746 91.3673 7.47619C91.0095 7.7619 90.8306 8.19048 90.8306 8.7619C90.8306 9.2381 90.9769 9.65079 91.2697 10C91.5625 10.3492 91.9367 10.6746 92.3921 10.9762C92.8638 11.2778 93.3681 11.6032 93.9049 11.9524C94.5067 12.3492 95.0435 12.746 95.5152 13.1429C96.0032 13.5238 96.3855 13.9524 96.662 14.4286C96.9548 14.9048 97.1012 15.4603 97.1012 16.0952C97.1012 16.8254 96.8978 17.4444 96.4912 17.9524C96.1008 18.4603 95.5803 18.8492 94.9296 19.119C94.279 19.373 93.5633 19.5 92.7825 19.5C92.3921 19.5 92.0261 19.4603 91.6845 19.381C91.3429 19.3175 91.0257 19.2302 90.733 19.119C90.554 19.0238 90.3751 18.9286 90.1962 18.8333C90.0335 18.7222 89.8709 18.619 89.7082 18.5238C89.5455 18.4127 89.3991 18.4286 89.269 18.5714C89.1389 18.7143 89.0413 18.9683 88.9762 19.3333H88.4394C88.472 18.8254 88.4964 18.2063 88.5126 17.4762C88.5289 16.746 88.537 15.7778 88.537 14.5714H89.0738C89.1877 15.4444 89.3585 16.2143 89.5862 16.881C89.8139 17.5476 90.1474 18.0714 90.5866 18.4524C91.042 18.8175 91.6601 19 92.4409 19C92.75 19 93.059 18.9365 93.3681 18.8095C93.6771 18.6667 93.9293 18.4444 94.1245 18.1429C94.3359 17.8413 94.4417 17.4365 94.4417 16.9286C94.4417 16.2302 94.1895 15.6587 93.6853 15.2143C93.1973 14.754 92.5629 14.2698 91.7821 13.7619C91.2291 13.381 90.7004 13.0079 90.1962 12.6429C89.7082 12.2619 89.3097 11.8413 89.0006 11.381C88.6916 10.9048 88.537 10.3413 88.537 9.69048C88.537 8.97619 88.7078 8.38889 89.0494 7.92857C89.4073 7.46825 89.879 7.12698 90.4646 6.90476C91.0501 6.66667 91.6764 6.54762 92.3433 6.54762Z"
        fill="#0B0D0E" />
    <path
        d="M105.864 6.54762C107.296 6.54762 108.418 6.96825 109.231 7.80952C110.045 8.65079 110.451 9.98413 110.451 11.8095H102.033L101.985 11.3571H107.865C107.881 10.5794 107.816 9.86508 107.67 9.21429C107.523 8.54762 107.296 8.01587 106.987 7.61905C106.677 7.22222 106.271 7.02381 105.767 7.02381C105.067 7.02381 104.457 7.38889 103.937 8.11905C103.432 8.83333 103.123 9.98413 103.009 11.5714L103.083 11.6905C103.066 11.9127 103.05 12.1587 103.034 12.4286C103.018 12.6825 103.009 12.9365 103.009 13.1905C103.009 14.2857 103.18 15.2063 103.522 15.9524C103.863 16.6984 104.311 17.2619 104.864 17.6429C105.417 18.0079 105.978 18.1905 106.547 18.1905C106.987 18.1905 107.409 18.127 107.816 18C108.239 17.8571 108.638 17.627 109.012 17.3095C109.386 16.9762 109.719 16.5238 110.012 15.9524L110.5 16.1429C110.305 16.6825 110.004 17.2143 109.597 17.7381C109.191 18.2619 108.67 18.6905 108.036 19.0238C107.401 19.3413 106.661 19.5 105.815 19.5C104.677 19.5 103.684 19.254 102.839 18.7619C101.993 18.254 101.342 17.5317 100.887 16.5952C100.431 15.6587 100.203 14.5476 100.203 13.2619C100.203 11.8492 100.439 10.6429 100.911 9.64286C101.383 8.64286 102.042 7.88095 102.887 7.35714C103.75 6.81746 104.742 6.54762 105.864 6.54762Z"
        fill="#0B0D0E" />
    <path
        d="M22.4513 9.62264L17.3404 6.89202C17.2209 6.82762 17.0866 6.79384 16.9501 6.79384C16.8136 6.79384 16.6793 6.82762 16.5598 6.89202L11.4488 9.62264C11.3209 9.69093 11.2142 9.7915 11.1398 9.91385C11.0654 10.0362 11.0261 10.1758 11.026 10.3181V15.7385C11.0261 15.8808 11.0654 16.0204 11.1398 16.1427C11.2142 16.265 11.3209 16.3656 11.4488 16.4339L16.5598 19.1645C16.6793 19.2288 16.8136 19.2626 16.9501 19.2626C17.0866 19.2626 17.2208 19.2288 17.3404 19.1645L22.4513 16.4339C22.5792 16.3656 22.686 16.265 22.7603 16.1427C22.8347 16.0204 22.874 15.8808 22.8742 15.7385V10.3181C22.874 10.1758 22.8347 10.0362 22.7603 9.91385C22.686 9.7915 22.5792 9.69093 22.4513 9.62264ZM22.1772 15.7385C22.1774 15.7586 22.1721 15.7783 22.1619 15.7957C22.1517 15.8132 22.1369 15.8276 22.1191 15.8377L17.0081 18.5683C16.991 18.5774 16.9719 18.5822 16.9524 18.5822C16.9329 18.5822 16.9137 18.5774 16.8966 18.5683L11.781 15.8377C11.7632 15.8276 11.7484 15.8132 11.7382 15.7957C11.728 15.7783 11.7227 15.7586 11.7229 15.7385V10.3181C11.7227 10.298 11.728 10.2782 11.7382 10.2608C11.7484 10.2434 11.7632 10.2289 11.781 10.2189L16.892 7.48824C16.9091 7.47912 16.9283 7.47433 16.9477 7.47433C16.9672 7.47433 16.9864 7.47912 17.0035 7.48824L22.1145 10.2189C22.1323 10.2289 22.1471 10.2434 22.1573 10.2608C22.1675 10.2782 22.1727 10.298 22.1726 10.3181L22.1772 15.7385Z"
        fill="#0B0D0E" />
    <path
        d="M22.4513 9.62264L17.3404 6.89202C17.2209 6.82762 17.0866 6.79384 16.9501 6.79384C16.8136 6.79384 16.6793 6.82762 16.5598 6.89202L11.4488 9.62264C11.3209 9.69093 11.2142 9.7915 11.1398 9.91385C11.0654 10.0362 11.0261 10.1758 11.026 10.3181V15.7385C11.0261 15.8808 11.0654 16.0204 11.1398 16.1427C11.2142 16.265 11.3209 16.3656 11.4488 16.4339L16.5598 19.1645C16.6793 19.2288 16.8136 19.2626 16.9501 19.2626C17.0866 19.2626 17.2208 19.2288 17.3404 19.1645L22.4513 16.4339C22.5792 16.3656 22.686 16.265 22.7603 16.1427C22.8347 16.0204 22.874 15.8808 22.8742 15.7385V10.3181C22.874 10.1758 22.8347 10.0362 22.7603 9.91385C22.686 9.7915 22.5792 9.69093 22.4513 9.62264ZM22.1772 15.7385C22.1774 15.7586 22.1721 15.7783 22.1619 15.7957C22.1517 15.8132 22.1369 15.8276 22.1191 15.8377L17.0081 18.5683C16.991 18.5774 16.9719 18.5822 16.9524 18.5822C16.9329 18.5822 16.9137 18.5774 16.8966 18.5683L11.781 15.8377C11.7632 15.8276 11.7484 15.8132 11.7382 15.7957C11.728 15.7783 11.7227 15.7586 11.7229 15.7385V10.3181C11.7227 10.298 11.728 10.2782 11.7382 10.2608C11.7484 10.2434 11.7632 10.2289 11.781 10.2189L16.892 7.48824C16.9091 7.47912 16.9283 7.47433 16.9477 7.47433C16.9672 7.47433 16.9864 7.47912 17.0035 7.48824L22.1145 10.2189C22.1323 10.2289 22.1471 10.2434 22.1573 10.2608C22.1675 10.2782 22.1727 10.298 22.1726 10.3181L22.1772 15.7385Z"
        fill="#0B0D0E" />
    <path fill-rule="evenodd" clip-rule="evenodd"
        d="M11.026 10.3181C11.0261 10.1758 11.0654 10.0362 11.1398 9.91385C11.2142 9.7915 11.3209 9.69093 11.4488 9.62264L16.5598 6.89202C16.6793 6.82762 16.8136 6.79384 16.9501 6.79384C17.0866 6.79384 17.2209 6.82762 17.3404 6.89202L22.4513 9.62264C22.5792 9.69093 22.686 9.7915 22.7603 9.91385C22.8347 10.0362 22.874 10.1758 22.8742 10.3181V15.7385C22.874 15.8808 22.8347 16.0204 22.7603 16.1427C22.686 16.265 22.5792 16.3656 22.4513 16.4339L17.3404 19.1645C17.2208 19.2288 17.0866 19.2626 16.9501 19.2626C16.8136 19.2626 16.6793 19.2288 16.5598 19.1645L11.4488 16.4339C11.3209 16.3656 11.2142 16.265 11.1398 16.1427C11.0654 16.0204 11.0261 15.8808 11.026 15.7385V10.3181ZM16.4177 19.4287C16.4174 19.4286 16.4179 19.4288 16.4177 19.4287L11.3075 16.6985C11.3075 16.6985 11.3075 16.6985 11.3075 16.6985C11.1329 16.6053 10.9861 16.4674 10.8835 16.2985C10.7808 16.1296 10.7261 15.9363 10.726 15.7387V10.318C10.7261 10.1205 10.7808 9.92689 10.8835 9.75798C10.9861 9.58915 11.1328 9.45128 11.3074 9.35803C11.3074 9.35802 11.3074 9.35804 11.3074 9.35803L16.4174 6.62792C16.4176 6.62783 16.4173 6.628 16.4174 6.62792C16.5808 6.53998 16.7643 6.49382 16.9501 6.49382C17.1358 6.49382 17.3188 6.53971 17.4822 6.62765C17.4824 6.62774 17.482 6.62756 17.4822 6.62765L22.5926 9.35799C22.5927 9.358 22.5926 9.35798 22.5926 9.35799C22.7673 9.45124 22.914 9.58915 23.0167 9.75798C23.1194 9.92689 23.174 10.1203 23.1742 10.3178V15.7385C23.174 15.936 23.1194 16.1296 23.0167 16.2985C22.914 16.4674 22.7673 16.6052 22.5927 16.6985C22.5927 16.6985 22.5927 16.6985 22.5927 16.6985L17.4825 19.4287C17.4823 19.4288 17.4827 19.4286 17.4825 19.4287C17.3192 19.5164 17.1356 19.5625 16.9501 19.5625C16.7645 19.5625 16.581 19.5164 16.4177 19.4287ZM16.8966 18.5683C16.9137 18.5774 16.9329 18.5822 16.9524 18.5822C16.9719 18.5822 16.991 18.5774 17.0081 18.5683L22.1191 15.8377C22.1369 15.8276 22.1517 15.8132 22.1619 15.7957C22.1721 15.7783 22.1774 15.7586 22.1772 15.7385L22.1726 10.3181C22.1727 10.298 22.1675 10.2782 22.1573 10.2608C22.1471 10.2434 22.1323 10.2289 22.1145 10.2189L17.0035 7.48824C16.9864 7.47912 16.9672 7.47433 16.9477 7.47433C16.9283 7.47433 16.9091 7.47912 16.892 7.48824L11.781 10.2189C11.7632 10.2289 11.7484 10.2434 11.7382 10.2608C11.728 10.2782 11.7227 10.298 11.7229 10.3181V15.7385C11.7227 15.7586 11.728 15.7783 11.7382 15.7957C11.7484 15.8132 11.7632 15.8276 11.781 15.8377L16.8966 18.5683ZM12.0229 10.4297V15.6267L16.9523 18.258L21.8771 15.6268L21.8727 10.4298L16.9477 7.79857L12.0229 10.4297Z"
        fill="#0B0D0E" />
</svg>