<svg width="110" height="29" viewBox="0 0 110 29" fill="none" xmlns="http://www.w3.org/2000/svg">
<g clip-path="url(#clip0_57_13)">
<path d="M22.4513 13.6226L17.3404 10.892C17.2209 10.8276 17.0866 10.7938 16.9501 10.7938C16.8136 10.7938 16.6793 10.8276 16.5598 10.892L11.4488 13.6226C11.3209 13.6909 11.2142 13.7915 11.1398 13.9138C11.0654 14.0362 11.0261 14.1758 11.026 14.3181V19.7385C11.0261 19.8808 11.0654 20.0204 11.1398 20.1427C11.2142 20.265 11.3209 20.3656 11.4488 20.4339L16.5598 23.1645C16.6793 23.2288 16.8136 23.2626 16.9501 23.2626C17.0866 23.2626 17.2208 23.2288 17.3404 23.1645L22.4513 20.4339C22.5792 20.3656 22.686 20.265 22.7603 20.1427C22.8347 20.0204 22.874 19.8808 22.8742 19.7385V14.3181C22.874 14.1758 22.8347 14.0362 22.7603 13.9138C22.686 13.7915 22.5792 13.6909 22.4513 13.6226ZM22.1772 19.7385C22.1774 19.7586 22.1721 19.7783 22.1619 19.7957C22.1517 19.8132 22.1369 19.8276 22.1191 19.8377L17.0081 22.5683C16.991 22.5774 16.9719 22.5822 16.9524 22.5822C16.9329 22.5822 16.9137 22.5774 16.8966 22.5683L11.781 19.8377C11.7632 19.8276 11.7484 19.8132 11.7382 19.7957C11.728 19.7783 11.7227 19.7586 11.7229 19.7385V14.3181C11.7227 14.298 11.728 14.2782 11.7382 14.2608C11.7484 14.2434 11.7632 14.2289 11.781 14.2189L16.892 11.4882C16.9091 11.4791 16.9283 11.4743 16.9477 11.4743C16.9672 11.4743 16.9864 11.4791 17.0035 11.4882L22.1145 14.2189C22.1323 14.2289 22.1471 14.2434 22.1573 14.2608C22.1675 14.2782 22.1727 14.298 22.1726 14.3181L22.1772 19.7385Z" fill="#0B0D0E"/>
<path d="M7.35657 10.5476C7.82829 10.5476 8.22681 10.6429 8.55214 10.8333C8.89373 11.0238 9.14585 11.2698 9.30851 11.5714C9.48744 11.8571 9.57691 12.1825 9.57691 12.5476C9.57691 13.0079 9.43051 13.4048 9.13772 13.7381C8.86119 14.0556 8.48707 14.2143 8.01535 14.2143C7.6087 14.2143 7.25897 14.0952 6.96618 13.8571C6.68966 13.619 6.55139 13.2937 6.55139 12.881C6.55139 12.5317 6.64086 12.2381 6.81979 12C7.01498 11.746 7.23457 11.5476 7.47857 11.4048C7.31591 11.2778 7.12071 11.2222 6.89298 11.2381C6.4538 11.254 6.04714 11.3968 5.67302 11.6667C5.2989 11.9206 4.98171 12.254 4.72145 12.6667C4.46119 13.0635 4.25786 13.4921 4.11147 13.9524C3.96507 14.4127 3.89187 14.8413 3.89187 15.2381V20.7143C3.89187 21.4921 4.11147 22.0159 4.55065 22.2857C4.98984 22.5397 5.59982 22.6667 6.3806 22.6667V23.1667C6.00648 23.1508 5.46969 23.1349 4.77025 23.119C4.08707 23.0873 3.36322 23.0714 2.59871 23.0714C2.01313 23.0714 1.42754 23.0873 0.841961 23.119C0.256378 23.1349 -0.190942 23.1508 -0.5 23.1667V22.6667C0.134381 22.6667 0.581702 22.5476 0.841961 22.3095C1.11849 22.0714 1.25675 21.619 1.25675 20.9524V13.4762C1.25675 12.7619 1.13475 12.2381 0.890759 11.9048C0.646767 11.5556 0.18318 11.381 -0.5 11.381V10.881C0.0205181 10.9286 0.52477 10.9524 1.01276 10.9524C1.56581 10.9524 2.07819 10.9286 2.54991 10.881C3.0379 10.8175 3.48522 10.7302 3.89187 10.619V13.3571C4.08707 12.8968 4.34733 12.4524 4.67265 12.0238C4.99797 11.5952 5.38836 11.246 5.84381 10.9762C6.29927 10.6905 6.80352 10.5476 7.35657 10.5476Z" fill="#0B0D0E"/>
<path d="M32.6375 10.5476C33.2556 10.5476 33.7761 10.6349 34.1991 10.8095C34.622 10.9683 34.9636 11.1905 35.2238 11.4762C35.5166 11.7778 35.7199 12.1825 35.8338 12.6905C35.9477 13.1825 36.0046 13.8095 36.0046 14.5714V20.9524C36.0046 21.619 36.1347 22.0714 36.395 22.3095C36.6552 22.5476 37.0944 22.6667 37.7125 22.6667V23.1667C37.436 23.1508 37.005 23.1349 36.4194 23.119C35.8501 23.0873 35.2889 23.0714 34.7358 23.0714C34.1828 23.0714 33.6379 23.0873 33.1011 23.119C32.5806 23.1349 32.182 23.1508 31.9055 23.1667V22.6667C32.4423 22.6667 32.8164 22.5476 33.0279 22.3095C33.2556 22.0714 33.3695 21.619 33.3695 20.9524V13.9048C33.3695 13.4444 33.3369 13.0317 33.2719 12.6667C33.2068 12.2857 33.0523 11.9841 32.8083 11.7619C32.5806 11.5238 32.2146 11.4048 31.7103 11.4048C31.141 11.4048 30.6286 11.5714 30.1732 11.9048C29.734 12.2381 29.3761 12.6984 29.0996 13.2857C28.8393 13.8571 28.7092 14.5 28.7092 15.2143V20.9524C28.7092 21.619 28.8231 22.0714 29.0508 22.3095C29.2785 22.5476 29.6527 22.6667 30.1732 22.6667V23.1667C29.9129 23.1508 29.5225 23.1349 29.002 23.119C28.4815 23.0873 27.9447 23.0714 27.3917 23.0714C26.8386 23.0714 26.2611 23.0873 25.6593 23.119C25.0575 23.1349 24.6101 23.1508 24.3173 23.1667V22.6667C24.9517 22.6667 25.399 22.5476 25.6593 22.3095C25.9358 22.0714 26.0741 21.619 26.0741 20.9524V13.4762C26.0741 12.7619 25.9521 12.2381 25.7081 11.9048C25.4641 11.5556 25.0005 11.381 24.3173 11.381V10.881C24.8379 10.9286 25.3421 10.9524 25.8301 10.9524C26.3831 10.9524 26.8955 10.9286 27.3673 10.881C27.8552 10.8175 28.3026 10.7302 28.7092 10.619V13.2143C29.1321 12.2619 29.6933 11.5794 30.3928 11.1667C31.1085 10.754 31.8567 10.5476 32.6375 10.5476ZM39.9817 10.5476C40.5998 10.5476 41.1203 10.6349 41.5432 10.8095C41.9662 10.9683 42.3077 11.1905 42.568 11.4762C42.8608 11.7778 43.0641 12.1825 43.178 12.6905C43.2919 13.1825 43.3488 13.8095 43.3488 14.5714V20.9524C43.3488 21.619 43.4789 22.0714 43.7392 22.3095C44.0157 22.5476 44.4712 22.6667 45.1055 22.6667V23.1667C44.829 23.1508 44.398 23.1349 43.8124 23.119C43.2268 23.0873 42.6493 23.0714 42.08 23.0714C41.527 23.0714 40.9821 23.0873 40.4453 23.119C39.9247 23.1349 39.5262 23.1508 39.2497 23.1667V22.6667C39.7865 22.6667 40.1606 22.5476 40.3721 22.3095C40.5998 22.0714 40.7137 21.619 40.7137 20.9524V13.9048C40.7137 13.4444 40.6811 13.0317 40.6161 12.6667C40.551 12.2857 40.3965 11.9841 40.1525 11.7619C39.9085 11.5238 39.5262 11.4048 39.0057 11.4048C38.4364 11.4048 37.924 11.5794 37.4686 11.9286C37.0294 12.2619 36.6715 12.7222 36.395 13.3095C36.1347 13.881 36.0046 14.5238 36.0046 15.2381L35.907 13.2619C36.3462 12.2143 36.9318 11.5 37.6637 11.119C38.412 10.7381 39.1846 10.5476 39.9817 10.5476Z" fill="#0B0D0E"/>
<path d="M50.1697 23.3333C49.4865 23.3333 48.901 23.2064 48.413 22.9524C47.925 22.6984 47.559 22.3492 47.315 21.9048C47.071 21.4603 46.949 20.9524 46.949 20.381C46.949 19.6825 47.1117 19.119 47.437 18.6905C47.7623 18.246 48.1771 17.8889 48.6814 17.619C49.2019 17.3492 49.7468 17.127 50.3161 16.9524C50.9017 16.7619 51.4466 16.5873 51.9509 16.4286C52.4714 16.254 52.8943 16.0556 53.2196 15.8333C53.5612 15.6111 53.732 15.3175 53.732 14.9524V13.3333C53.732 12.7619 53.6344 12.3095 53.4392 11.9762C53.2603 11.627 53.0082 11.381 52.6828 11.2381C52.3738 11.0952 51.9997 11.0238 51.5605 11.0238C51.1864 11.0238 50.7878 11.0794 50.3649 11.1905C49.942 11.2857 49.6085 11.4841 49.3645 11.7857C49.7224 11.881 50.0152 12.0714 50.2429 12.3571C50.4869 12.627 50.6089 12.9683 50.6089 13.381C50.6089 13.8254 50.4544 14.1746 50.1453 14.4286C49.8525 14.6825 49.4784 14.8095 49.023 14.8095C48.5187 14.8095 48.1446 14.6587 47.9006 14.3571C47.6566 14.0397 47.5346 13.6746 47.5346 13.2619C47.5346 12.8333 47.6403 12.4841 47.8518 12.2143C48.0795 11.9444 48.3723 11.6905 48.7302 11.4524C49.1205 11.1984 49.6167 10.9841 50.2185 10.8095C50.8366 10.6349 51.5198 10.5476 52.2681 10.5476C52.9675 10.5476 53.5694 10.627 54.0736 10.7857C54.5941 10.9286 55.0252 11.1667 55.3668 11.5C55.7734 11.8651 56.0418 12.3254 56.1719 12.881C56.3021 13.4206 56.3671 14.0794 56.3671 14.8571V21.4286C56.3671 21.8254 56.4159 22.1111 56.5135 22.2857C56.6274 22.4444 56.8063 22.5238 57.0503 22.5238C57.213 22.5238 57.3675 22.4841 57.5139 22.4048C57.6766 22.3254 57.8636 22.2063 58.0751 22.0476L58.3191 22.4524C57.9775 22.7222 57.6278 22.9365 57.2699 23.0952C56.9283 23.254 56.4891 23.3333 55.9523 23.3333C55.4318 23.3333 55.0089 23.254 54.6836 23.0952C54.3583 22.9365 54.1143 22.7064 53.9516 22.4048C53.8052 22.1032 53.732 21.7302 53.732 21.2857C53.3091 21.9524 52.8048 22.4603 52.2193 22.8095C51.6337 23.1587 50.9505 23.3333 50.1697 23.3333ZM51.3409 22.1905C51.7963 22.1905 52.2193 22.0635 52.6096 21.8095C53.0163 21.5556 53.3904 21.1746 53.732 20.6667V15.9286C53.5531 16.1825 53.2928 16.4048 52.9512 16.5952C52.6096 16.7698 52.2437 16.9524 51.8533 17.1429C51.4629 17.3333 51.0888 17.5556 50.7309 17.8095C50.3893 18.0476 50.1046 18.3571 49.8769 18.7381C49.6492 19.119 49.5353 19.6032 49.5353 20.1905C49.5353 20.8095 49.698 21.3016 50.0233 21.6667C50.3486 22.0159 50.7878 22.1905 51.3409 22.1905Z" fill="#0B0D0E"/>
<path d="M64.2452 4.5V20.9524C64.2452 21.619 64.3591 22.0714 64.5868 22.3095C64.8308 22.5476 65.2375 22.6667 65.8068 22.6667V23.1667C65.5303 23.1508 65.1155 23.1349 64.5624 23.119C64.0257 23.0873 63.4807 23.0714 62.9277 23.0714C62.3584 23.0714 61.7728 23.0873 61.1709 23.119C60.5854 23.1349 60.1462 23.1508 59.8534 23.1667V22.6667C60.4878 22.6667 60.9351 22.5476 61.1953 22.3095C61.4719 22.0714 61.6101 21.619 61.6101 20.9524V7.35714C61.6101 6.64286 61.48 6.11905 61.2197 5.78571C60.9757 5.43651 60.5203 5.2619 59.8534 5.2619V4.7619C60.3739 4.80952 60.8781 4.83333 61.3661 4.83333C61.9029 4.83333 62.4153 4.80952 62.9033 4.7619C63.3913 4.69841 63.8386 4.61111 64.2452 4.5ZM72.053 10.881V11.3571C71.6138 11.4206 71.1909 11.5635 70.7843 11.7857C70.3776 12.0079 69.9791 12.3175 69.5887 12.7143L66.6608 15.7143L66.978 15.119L71.3942 21.4286C71.6382 21.7619 71.8741 22.0397 72.1018 22.2619C72.3296 22.4683 72.6142 22.6032 72.9558 22.6667V23.1667C72.7443 23.1508 72.4271 23.1349 72.0042 23.119C71.5976 23.0873 71.1909 23.0714 70.7843 23.0714C70.2475 23.0714 69.7026 23.0873 69.1495 23.119C68.5965 23.1349 68.1898 23.1508 67.9295 23.1667V22.6667C68.2549 22.6667 68.4745 22.5873 68.5883 22.4286C68.7184 22.2698 68.7022 22.0794 68.5395 21.8571L65.8556 17.7619C65.5791 17.381 65.327 17.1349 65.0992 17.0238C64.8715 16.9127 64.5462 16.8492 64.1232 16.8333V16.3571C64.595 16.3095 64.9772 16.2222 65.27 16.0952C65.5791 15.9683 65.8637 15.7619 66.124 15.4762L67.9539 13.6667C68.4745 13.1587 68.7347 12.7381 68.7347 12.4048C68.7347 12.0556 68.5639 11.8016 68.2223 11.6429C67.897 11.4683 67.4578 11.373 66.9048 11.3571V10.881C67.344 10.8968 67.8238 10.9206 68.3443 10.9524C68.8811 10.9683 69.3284 10.9762 69.6863 10.9762C69.9791 10.9762 70.2719 10.9762 70.5647 10.9762C70.8737 10.9603 71.1584 10.9444 71.4186 10.9286C71.6789 10.9127 71.8904 10.8968 72.053 10.881Z" fill="#0B0D0E"/>
<path d="M77.9506 23.3333C77.2674 23.3333 76.6818 23.2064 76.1938 22.9524C75.7059 22.6984 75.3399 22.3492 75.0959 21.9048C74.8519 21.4603 74.7299 20.9524 74.7299 20.381C74.7299 19.6825 74.8925 19.119 75.2179 18.6905C75.5432 18.246 75.958 17.8889 76.4622 17.619C76.9827 17.3492 77.5277 17.127 78.097 16.9524C78.6826 16.7619 79.2275 16.5873 79.7317 16.4286C80.2523 16.254 80.6752 16.0556 81.0005 15.8333C81.3421 15.6111 81.5129 15.3175 81.5129 14.9524V13.3333C81.5129 12.7619 81.4153 12.3095 81.2201 11.9762C81.0412 11.627 80.789 11.381 80.4637 11.2381C80.1547 11.0952 79.7805 11.0238 79.3413 11.0238C78.9672 11.0238 78.5687 11.0794 78.1458 11.1905C77.7229 11.2857 77.3894 11.4841 77.1454 11.7857C77.5033 11.881 77.7961 12.0714 78.0238 12.3571C78.2678 12.627 78.3898 12.9683 78.3898 13.381C78.3898 13.8254 78.2353 14.1746 77.9262 14.4286C77.6334 14.6825 77.2593 14.8095 76.8038 14.8095C76.2996 14.8095 75.9255 14.6587 75.6815 14.3571C75.4375 14.0397 75.3155 13.6746 75.3155 13.2619C75.3155 12.8333 75.4212 12.4841 75.6327 12.2143C75.8604 11.9444 76.1532 11.6905 76.511 11.4524C76.9014 11.1984 77.3975 10.9841 77.9994 10.8095C78.6175 10.6349 79.3007 10.5476 80.0489 10.5476C80.7484 10.5476 81.3502 10.627 81.8545 10.7857C82.375 10.9286 82.8061 11.1667 83.1476 11.5C83.5543 11.8651 83.8227 12.3254 83.9528 12.881C84.0829 13.4206 84.148 14.0794 84.148 14.8571V21.4286C84.148 21.8254 84.1968 22.1111 84.2944 22.2857C84.4083 22.4444 84.5872 22.5238 84.8312 22.5238C84.9939 22.5238 85.1484 22.4841 85.2948 22.4048C85.4574 22.3254 85.6445 22.2063 85.856 22.0476L86.1 22.4524C85.7584 22.7222 85.4086 22.9365 85.0508 23.0952C84.7092 23.254 84.27 23.3333 83.7332 23.3333C83.2127 23.3333 82.7898 23.254 82.4645 23.0952C82.1391 22.9365 81.8951 22.7064 81.7325 22.4048C81.5861 22.1032 81.5129 21.7302 81.5129 21.2857C81.09 21.9524 80.5857 22.4603 80.0001 22.8095C79.4145 23.1587 78.7314 23.3333 77.9506 23.3333ZM79.1217 22.1905C79.5772 22.1905 80.0001 22.0635 80.3905 21.8095C80.7972 21.5556 81.1713 21.1746 81.5129 20.6667V15.9286C81.334 16.1825 81.0737 16.4048 80.7321 16.5952C80.3905 16.7698 80.0245 16.9524 79.6341 17.1429C79.2438 17.3333 78.8696 17.5556 78.5118 17.8095C78.1702 18.0476 77.8855 18.3571 77.6578 18.7381C77.4301 19.119 77.3162 19.6032 77.3162 20.1905C77.3162 20.8095 77.4789 21.3016 77.8042 21.6667C78.1295 22.0159 78.5687 22.1905 79.1217 22.1905Z" fill="#0B0D0E"/>
<path d="M92.3433 10.5476C92.994 10.5476 93.5551 10.6508 94.0269 10.8571C94.5148 11.0476 94.8646 11.2222 95.076 11.381C95.6128 11.7937 95.9463 11.5238 96.0764 10.5714H96.6132C96.5807 11.0159 96.5563 11.5556 96.54 12.1905C96.5237 12.8095 96.5156 13.6349 96.5156 14.6667H95.9788C95.8812 14.0794 95.7104 13.5079 95.4664 12.9524C95.2387 12.3968 94.8971 11.9365 94.4417 11.5714C94.0025 11.2063 93.425 11.0238 92.7093 11.0238C92.1725 11.0238 91.7252 11.1746 91.3673 11.4762C91.0095 11.7619 90.8306 12.1905 90.8306 12.7619C90.8306 13.2381 90.9769 13.6508 91.2697 14C91.5625 14.3492 91.9367 14.6746 92.3921 14.9762C92.8638 15.2778 93.3681 15.6032 93.9049 15.9524C94.5067 16.3492 95.0435 16.746 95.5152 17.1429C96.0032 17.5238 96.3855 17.9524 96.662 18.4286C96.9548 18.9048 97.1012 19.4603 97.1012 20.0952C97.1012 20.8254 96.8978 21.4444 96.4912 21.9524C96.1008 22.4603 95.5803 22.8492 94.9296 23.119C94.279 23.373 93.5633 23.5 92.7825 23.5C92.3921 23.5 92.0261 23.4603 91.6845 23.381C91.3429 23.3175 91.0257 23.2302 90.733 23.119C90.554 23.0238 90.3751 22.9286 90.1962 22.8333C90.0335 22.7222 89.8708 22.619 89.7082 22.5238C89.5455 22.4127 89.3991 22.4286 89.269 22.5714C89.1389 22.7143 89.0413 22.9683 88.9762 23.3333H88.4394C88.472 22.8254 88.4964 22.2063 88.5126 21.4762C88.5289 20.746 88.537 19.7778 88.537 18.5714H89.0738C89.1877 19.4444 89.3585 20.2143 89.5862 20.881C89.8139 21.5476 90.1474 22.0714 90.5866 22.4524C91.042 22.8175 91.6601 23 92.4409 23C92.75 23 93.059 22.9365 93.3681 22.8095C93.6771 22.6667 93.9293 22.4444 94.1245 22.1429C94.3359 21.8413 94.4417 21.4365 94.4417 20.9286C94.4417 20.2302 94.1895 19.6587 93.6853 19.2143C93.1973 18.754 92.5629 18.2698 91.7821 17.7619C91.2291 17.381 90.7004 17.0079 90.1962 16.6429C89.7082 16.2619 89.3097 15.8413 89.0006 15.381C88.6916 14.9048 88.537 14.3413 88.537 13.6905C88.537 12.9762 88.7078 12.3889 89.0494 11.9286C89.4073 11.4683 89.879 11.127 90.4646 10.9048C91.0501 10.6667 91.6764 10.5476 92.3433 10.5476Z" fill="#0B0D0E"/>
<path d="M105.864 10.5476C107.296 10.5476 108.418 10.9683 109.231 11.8095C110.045 12.6508 110.451 13.9841 110.451 15.8095H102.033L101.985 15.3571H107.865C107.881 14.5794 107.816 13.8651 107.67 13.2143C107.523 12.5476 107.296 12.0159 106.987 11.619C106.677 11.2222 106.271 11.0238 105.767 11.0238C105.067 11.0238 104.457 11.3889 103.937 12.119C103.432 12.8333 103.123 13.9841 103.009 15.5714L103.083 15.6905C103.066 15.9127 103.05 16.1587 103.034 16.4286C103.018 16.6825 103.009 16.9365 103.009 17.1905C103.009 18.2857 103.18 19.2063 103.522 19.9524C103.863 20.6984 104.311 21.2619 104.864 21.6429C105.417 22.0079 105.978 22.1905 106.547 22.1905C106.987 22.1905 107.409 22.127 107.816 22C108.239 21.8571 108.638 21.627 109.012 21.3095C109.386 20.9762 109.719 20.5238 110.012 19.9524L110.5 20.1429C110.305 20.6825 110.004 21.2143 109.597 21.7381C109.191 22.2619 108.67 22.6905 108.036 23.0238C107.401 23.3413 106.661 23.5 105.815 23.5C104.677 23.5 103.684 23.254 102.839 22.7619C101.993 22.254 101.342 21.5317 100.887 20.5952C100.431 19.6587 100.203 18.5476 100.203 17.2619C100.203 15.8492 100.439 14.6429 100.911 13.6429C101.383 12.6429 102.042 11.881 102.887 11.3571C103.75 10.8175 104.742 10.5476 105.864 10.5476Z" fill="#0B0D0E"/>
<path d="M22.4513 13.6226L17.3404 10.892C17.2209 10.8276 17.0866 10.7938 16.9501 10.7938C16.8136 10.7938 16.6793 10.8276 16.5598 10.892L11.4488 13.6226C11.3209 13.6909 11.2142 13.7915 11.1398 13.9138C11.0654 14.0362 11.0261 14.1758 11.026 14.3181V19.7385C11.0261 19.8808 11.0654 20.0204 11.1398 20.1427C11.2142 20.265 11.3209 20.3656 11.4488 20.4339L16.5598 23.1645C16.6793 23.2288 16.8136 23.2626 16.9501 23.2626C17.0866 23.2626 17.2208 23.2288 17.3404 23.1645L22.4513 20.4339C22.5792 20.3656 22.686 20.265 22.7603 20.1427C22.8347 20.0204 22.874 19.8808 22.8742 19.7385V14.3181C22.874 14.1758 22.8347 14.0362 22.7603 13.9138C22.686 13.7915 22.5792 13.6909 22.4513 13.6226ZM22.1772 19.7385C22.1774 19.7586 22.1721 19.7783 22.1619 19.7957C22.1517 19.8132 22.1369 19.8276 22.1191 19.8377L17.0081 22.5683C16.991 22.5774 16.9719 22.5822 16.9524 22.5822C16.9329 22.5822 16.9137 22.5774 16.8966 22.5683L11.781 19.8377C11.7632 19.8276 11.7484 19.8132 11.7382 19.7957C11.728 19.7783 11.7227 19.7586 11.7229 19.7385V14.3181C11.7227 14.298 11.728 14.2782 11.7382 14.2608C11.7484 14.2434 11.7632 14.2289 11.781 14.2189L16.892 11.4882C16.9091 11.4791 16.9283 11.4743 16.9477 11.4743C16.9672 11.4743 16.9864 11.4791 17.0035 11.4882L22.1145 14.2189C22.1323 14.2289 22.1471 14.2434 22.1573 14.2608C22.1675 14.2782 22.1727 14.298 22.1726 14.3181L22.1772 19.7385Z" fill="#0B0D0E"/>
<path d="M22.4513 13.6226L17.3404 10.892C17.2209 10.8276 17.0866 10.7938 16.9501 10.7938C16.8136 10.7938 16.6793 10.8276 16.5598 10.892L11.4488 13.6226C11.3209 13.6909 11.2142 13.7915 11.1398 13.9138C11.0654 14.0362 11.0261 14.1758 11.026 14.3181V19.7385C11.0261 19.8808 11.0654 20.0204 11.1398 20.1427C11.2142 20.265 11.3209 20.3656 11.4488 20.4339L16.5598 23.1645C16.6793 23.2288 16.8136 23.2626 16.9501 23.2626C17.0866 23.2626 17.2208 23.2288 17.3404 23.1645L22.4513 20.4339C22.5792 20.3656 22.686 20.265 22.7603 20.1427C22.8347 20.0204 22.874 19.8808 22.8742 19.7385V14.3181C22.874 14.1758 22.8347 14.0362 22.7603 13.9138C22.686 13.7915 22.5792 13.6909 22.4513 13.6226ZM22.1772 19.7385C22.1774 19.7586 22.1721 19.7783 22.1619 19.7957C22.1517 19.8132 22.1369 19.8276 22.1191 19.8377L17.0081 22.5683C16.991 22.5774 16.9719 22.5822 16.9524 22.5822C16.9329 22.5822 16.9137 22.5774 16.8966 22.5683L11.781 19.8377C11.7632 19.8276 11.7484 19.8132 11.7382 19.7957C11.728 19.7783 11.7227 19.7586 11.7229 19.7385V14.3181C11.7227 14.298 11.728 14.2782 11.7382 14.2608C11.7484 14.2434 11.7632 14.2289 11.781 14.2189L16.892 11.4882C16.9091 11.4791 16.9283 11.4743 16.9477 11.4743C16.9672 11.4743 16.9864 11.4791 17.0035 11.4882L22.1145 14.2189C22.1323 14.2289 22.1471 14.2434 22.1573 14.2608C22.1675 14.2782 22.1727 14.298 22.1726 14.3181L22.1772 19.7385Z" fill="#0B0D0E"/>
<path fill-rule="evenodd" clip-rule="evenodd" d="M11.026 14.3181C11.0261 14.1758 11.0654 14.0362 11.1398 13.9138C11.2142 13.7915 11.3209 13.6909 11.4488 13.6226L16.5598 10.892C16.6793 10.8276 16.8136 10.7938 16.9501 10.7938C17.0866 10.7938 17.2209 10.8276 17.3404 10.892L22.4513 13.6226C22.5792 13.6909 22.686 13.7915 22.7603 13.9138C22.8347 14.0362 22.874 14.1758 22.8742 14.3181V19.7385C22.874 19.8808 22.8347 20.0204 22.7603 20.1427C22.686 20.265 22.5792 20.3656 22.4513 20.4339L17.3404 23.1645C17.2208 23.2288 17.0866 23.2626 16.9501 23.2626C16.8136 23.2626 16.6793 23.2288 16.5598 23.1645L11.4488 20.4339C11.3209 20.3656 11.2142 20.265 11.1398 20.1427C11.0654 20.0204 11.0261 19.8808 11.026 19.7385V14.3181ZM16.4177 23.4287C16.4174 23.4286 16.4179 23.4288 16.4177 23.4287L11.3075 20.6985C11.3075 20.6985 11.3075 20.6985 11.3075 20.6985C11.1329 20.6053 10.9861 20.4674 10.8835 20.2985C10.7808 20.1296 10.7261 19.9363 10.726 19.7387V14.318C10.7261 14.1205 10.7808 13.9269 10.8835 13.758C10.9861 13.5891 11.1328 13.4513 11.3074 13.358C11.3074 13.358 11.3074 13.358 11.3074 13.358L16.4174 10.6279C16.4173 10.628 16.4176 10.6278 16.4174 10.6279C16.5808 10.54 16.7643 10.4938 16.9501 10.4938C17.1358 10.4938 17.3188 10.5397 17.4822 10.6277C17.482 10.6276 17.4824 10.6277 17.4822 10.6277L22.5926 13.358C22.5926 13.358 22.5927 13.358 22.5926 13.358C22.7673 13.4512 22.914 13.5891 23.0167 13.758C23.1194 13.9269 23.174 14.1203 23.1742 14.3178V19.7385C23.174 19.936 23.1194 20.1296 23.0167 20.2985C22.914 20.4674 22.7673 20.6052 22.5927 20.6985C22.5927 20.6985 22.5927 20.6985 22.5927 20.6985L17.4825 23.4287C17.4823 23.4288 17.4827 23.4286 17.4825 23.4287C17.3192 23.5164 17.1356 23.5625 16.9501 23.5625C16.7645 23.5625 16.581 23.5164 16.4177 23.4287ZM16.8966 22.5683C16.9137 22.5774 16.9329 22.5822 16.9524 22.5822C16.9719 22.5822 16.991 22.5774 17.0081 22.5683L22.1191 19.8377C22.1369 19.8276 22.1517 19.8132 22.1619 19.7957C22.1721 19.7783 22.1774 19.7586 22.1772 19.7385L22.1726 14.3181C22.1727 14.298 22.1675 14.2782 22.1573 14.2608C22.1471 14.2434 22.1323 14.2289 22.1145 14.2189L17.0035 11.4882C16.9864 11.4791 16.9672 11.4743 16.9477 11.4743C16.9283 11.4743 16.9091 11.4791 16.892 11.4882L11.781 14.2189C11.7632 14.2289 11.7484 14.2434 11.7382 14.2608C11.728 14.2782 11.7227 14.298 11.7229 14.3181V19.7385C11.7227 19.7586 11.728 19.7783 11.7382 19.7957C11.7484 19.8132 11.7632 19.8276 11.781 19.8377L16.8966 22.5683ZM12.0229 14.4297V19.6267L16.9523 22.258L21.8771 19.6268L21.8727 14.4298L16.9477 11.7986L12.0229 14.4297Z" fill="#0B0D0E"/>
</g>
<defs>
<clipPath id="clip0_57_13">
<rect width="110" height="29" fill="white"/>
</clipPath>
</defs>
</svg>
