<svg width="245" height="48" viewBox="0 0 245 48" fill="none" xmlns="http://www.w3.org/2000/svg">
<g clip-path="url(#clip0_130_5500)">
<path d="M55.1199 0L34.3333 12V36L55.1199 48L75.9066 36V12L55.1199 0ZM67.3133 31.04L55.1199 38.08L42.9266 31.04V16.96L55.1199 9.92L67.3133 16.96V31.04Z" fill="black"/>
<path d="M4.7 3.60669H0V44.7467H10.0467V28.9934H26.0933V20.5934H10.0467V12.48H28.4467V3.60669H10.0467H4.7Z" fill="black"/>
<path d="M164.82 9.36669C163.02 7.52669 160.86 6.11336 158.353 5.13336C155.847 4.11336 153.087 3.60669 150.067 3.60669H132.727V44.7467H150.067C153.12 44.7467 155.887 44.26 158.353 43.28C160.86 42.26 163.013 40.8534 164.82 39.0467C166.62 37.2067 168.013 35.0334 168.993 32.52C169.973 30.0067 170.46 27.2334 170.46 24.1734C170.46 21.1134 169.973 18.3934 168.993 15.8867C168.013 13.34 166.62 11.1667 164.82 9.36002V9.36669ZM159.533 28.9934C159.06 30.4067 158.36 31.64 157.42 32.6934C156.52 33.7134 155.42 34.4934 154.127 35.0467C152.833 35.5934 151.387 35.8667 149.78 35.8667H142.787V12.48H149.78C151.387 12.48 152.833 12.7534 154.127 13.3C155.42 13.8467 156.513 14.6534 157.42 15.7067C158.36 16.7267 159.067 17.96 159.533 19.4067C160.04 20.82 160.3 22.4067 160.3 24.1667C160.3 25.9267 160.047 27.5334 159.533 28.9867V28.9934Z" fill="black"/>
<path d="M188.767 3.60669H178.72V44.7467H207.1V35.8734H188.767V3.60669Z" fill="black"/>
<path d="M224.987 36.1667V27.9334H241.267V19.7067H224.987V12.1867H243.853V3.60669H215.173V44.7467H244.5V36.1667H224.987Z" fill="black"/>
<path d="M103.253 0L82.4666 12V36L103.253 48L124.04 36V12L103.253 0ZM115.447 31.04L103.253 38.08L91.0599 31.04V16.96L103.253 9.92L115.447 16.96V31.04Z" fill="black"/>
</g>
<defs>
<clipPath id="clip0_130_5500">
<rect width="244.5" height="48" fill="white"/>
</clipPath>
</defs>
</svg>
