<svg width="34" height="34" viewBox="0 0 34 34" fill="none" xmlns="http://www.w3.org/2000/svg">
<rect width="34" height="34" rx="17" fill="#0B0D0E"/>
<path d="M8 19C8.83 19.642 10.077 20.017 11.5 20C12.923 20.017 14.17 19.642 15 19C15.83 18.358 17.077 17.983 18.5 18C19.923 17.983 21.17 18.358 22 19M13 8C12.6835 8.22717 12.4271 8.52797 12.2528 8.87642C12.0786 9.22488 11.9918 9.6105 12 10C11.9918 10.3895 12.0786 10.7751 12.2528 11.1236C12.4271 11.472 12.6835 11.7728 13 12M17 8C16.6835 8.22717 16.4271 8.52797 16.2528 8.87642C16.0786 9.22488 15.9918 9.6105 16 10C15.9918 10.3895 16.0786 10.7751 16.2528 11.1236C16.4271 11.472 16.6835 11.7728 17 12" stroke="white" stroke-width="2" stroke-linecap="round" stroke-linejoin="round"/>
<path d="M8 15H22V20C22 21.5913 21.3679 23.1174 20.2426 24.2426C19.1174 25.3679 17.5913 26 16 26H14C12.4087 26 10.8826 25.3679 9.75736 24.2426C8.63214 23.1174 8 21.5913 8 20V15Z" stroke="white" stroke-width="2" stroke-linecap="round" stroke-linejoin="round"/>
<path d="M21.746 21.726C22.1926 21.931 22.6827 22.0232 23.1733 21.9944C23.6638 21.9657 24.1398 21.8168 24.5594 21.561C24.9789 21.3052 25.3292 20.9502 25.5795 20.5273C25.8297 20.1043 25.9722 19.6264 25.9945 19.1355C26.0168 18.6446 25.9181 18.1558 25.7072 17.7119C25.4963 17.2681 25.1796 16.8829 24.7849 16.5901C24.3902 16.2973 23.9296 16.106 23.4437 16.0329C22.9578 15.9599 22.4613 16.0073 21.998 16.171" stroke="white" stroke-width="2" stroke-linecap="round" stroke-linejoin="round"/>
</svg>
