<svg width="32" height="32" viewBox="0 0 32 32" fill="none" xmlns="http://www.w3.org/2000/svg">
<path d="M3.33331 23.3333C3.33331 22.5969 3.93027 22 4.66665 22H27.3333C28.0697 22 28.6666 22.5969 28.6666 23.3333V28H3.33331V23.3333Z" fill="#B93129" stroke="#0B0D0E" stroke-width="2" stroke-linecap="round" stroke-linejoin="round"/>
<path d="M28 12H22.6667L18.6667 8L22.6667 4H28" stroke="#0B0D0E" stroke-width="2" stroke-linecap="round" stroke-linejoin="round"/>
<path d="M5.33332 10.6667C6.80608 10.6667 7.99999 9.47276 7.99999 8C7.99999 6.52724 6.80608 5.33334 5.33332 5.33334C3.86056 5.33334 2.66666 6.52724 2.66666 8C2.66666 9.47276 3.86056 10.6667 5.33332 10.6667Z" fill="#B93129" stroke="#0B0D0E" stroke-width="2"/>
<path d="M8 8H18.6667" stroke="#0B0D0E" stroke-width="2" stroke-linecap="round" stroke-linejoin="round"/>
<path d="M6.66666 10.6667L12 22" stroke="#0B0D0E" stroke-width="2" stroke-linecap="round" stroke-linejoin="round"/>
</svg>
